<?xml version="1.0" encoding="utf-8"?>
<!-- Generator: Adobe Illustrator 22.1.0, SVG Export Plug-In . SVG Version: 6.00 Build 0)  -->
<svg version="1.1" id="Layer_1" xmlns="http://www.w3.org/2000/svg" xmlns:xlink="http://www.w3.org/1999/xlink" x="0px" y="0px"
	 viewBox="0 0 256 256" style="enable-background:new 0 0 256 256;" xml:space="preserve">
<style type="text/css">
	.st0{fill:none;}
	.st1{fill:#706F6F;}
	.st2{fill:#4BAFF0;}
	.st3{fill:#FFFFFF;}
	.st4{fill:#DADADA;}
</style>
<g>
	<g>
		<path class="st0" d="M136.735,168.161c33.73,0,62.789,20.814,76.087,50.804c25.321-22.495,41.215-54.919,41.215-90.965
			C254.037,60.077,197.608,5.015,128,5.015S1.963,60.077,1.963,128c0,42.118,21.702,79.286,54.786,101.452
			C67.424,193.931,99.195,168.161,136.735,168.161z"/>
		<g>
			<rect x="107.459" y="149.999" class="st1" width="48.207" height="24.486"/>
		</g>
		<path class="st2" d="M136.735,168.161c-37.54,0-69.311,25.77-79.987,61.291c20.269,13.58,44.807,21.534,71.252,21.534
			c32.667,0,62.431-12.128,84.822-32.02C199.524,188.976,170.466,168.161,136.735,168.161z"/>
	</g>
	<g>
		<g>
			<rect x="116.555" y="153.787" class="st3" width="30.729" height="28.747"/>
		</g>
		<g>
			<g>
				<g>
					<path class="st1" d="M229.866,175.268c-24.23,5.856-41.149-4.601-44.074-29.072c-1.462-12.549-0.418-25.516,0.209-38.274
						c0.627-11.712,4.804-23.006,2.507-35.137c-4.178-23.843-21.097-43.503-43.447-48.732c-5.013-1.046-10.026-1.882-15.039-2.301
						c-24.021-2.091-44.909,9.621-54.518,30.745c-8.146,17.987-10.444,37.019-5.849,56.47c2.715,11.503,7.311,22.379,10.653,33.673
						c5.222,17.778,9.26,34.818-2.02,51.969c-0.144,0.144-1.725,1.152-0.849,1.477c0.863,0.321,1.781,0.483,2.698,0.4
						c6.318-0.571,11.945-3.042,16.882-7.415c8.146-7.32,12.533-16.523,14.413-27.189c1.88-9.412,0.418-17.987-5.64-25.725
						c-3.551-4.601-6.266-10.039-9.4-15.059c-3.969-5.856-3.913-11.934-3.704-18.836c0-1.255,0.694-3.218,1.112-4.892
						c0.418-1.464,5.307-19.148,5.516-23.54c0.627-12.549,8.982-17.987,19.635-12.131c15.039,8.366,29.452,17.778,43.656,27.399
						c5.431,3.556,8.564,9.412,7.729,16.732c-0.836,5.856-0.836,11.922-2.298,17.569c-2.507,10.039-6.475,19.242-17.337,23.425
						c-1.044,0.418-1.88,2.51-1.88,3.765c0.627,11.294,3.855,21.857,9.077,31.896c7.937,15.268,20.167,21.646,36.877,17.463
						c14.413-3.556,26.319-11.294,37.389-20.287C234.253,177.987,232.582,174.641,229.866,175.268L229.866,175.268z"/>
				</g>
			</g>
		</g>
		<g>
			<ellipse class="st3" cx="131.92" cy="109.228" rx="39.231" ry="55.088"/>
		</g>
		<g>
			<path class="st2" d="M147.305,169.741c0,0-11.962,9.409-16.101,10.91c-4.138,1.501-3.514,10.537-3.514,10.537l27.119,2.024
				l4.208-4.18L147.305,169.741z"/>
		</g>
		<g>
			<path class="st2" d="M116.531,170.623c0,0,11.229,10.273,15.244,12.078c4.015,1.805,2.72,10.769,2.72,10.769h-27.194
				l-3.885-4.482L116.531,170.623z"/>
		</g>
		<g>
			<path class="st2" d="M129.051,181.039c0,0,1.9,0.493,2.802,0.035s1.664,0.458,1.664,0.458l-0.185,1.611l-2.517,1.208
				l-1.579-0.503L129.051,181.039z"/>
		</g>
		<g>
			<path class="st1" d="M146.561,43.295c-9.955-18.634-48.454-4.075-57.962,6.601C74.926,65.25,76.184,81.004,77.767,100.482
				C95.136,95.926,161.218,69.932,146.561,43.295z"/>
		</g>
	</g>
	<g>
		<path class="st4" d="M119.212,135.913c0,4.987,5.689,9.029,12.708,9.029c7.018,0,12.708-4.042,12.708-9.029H119.212z"/>
	</g>
</g>
</svg>
