<svg id="Layer_1" data-name="Layer 1" xmlns="http://www.w3.org/2000/svg" viewBox="0 0 256 256"><defs><style>.cls-1{fill:none;}.cls-2{fill:#4baff0;}.cls-3{fill:#fff;}.cls-4{fill:#dadada;}.cls-5{fill:#706f6f;}</style></defs><title>homme avatar 01</title><path class="cls-1" d="M-.76,128c0,43,22.17,81,56,103.64C66.12,195.35,98.57,169,136.92,169c34.46,0,64.15,21.26,77.73,51.9,25.87-23,42.11-56.1,42.11-92.93"/><path class="cls-1" d="M256.76,128C256.76,58.61,199.11,2.36,128,2.36S-.76,58.61-.76,128"/><path class="cls-2" d="M136.92,169c-38.35,0-70.8,26.32-81.71,62.61a131.25,131.25,0,0,0,159.44-10.71C201.07,190.29,171.38,169,136.92,169Z"/><rect class="cls-3" x="116.31" y="154.34" width="31.39" height="29.37"/><ellipse class="cls-3" cx="131.36" cy="108.03" rx="41.63" ry="56.28"/><path class="cls-2" d="M147.72,170.64s-12.22,9.61-16.45,11.15-3.59,10.76-3.59,10.76l27.71,2.07,4.3-4.27Z"/><path class="cls-2" d="M116.28,171.54s11.47,10.5,15.58,12.34,2.78,11,2.78,11H106.85l-4-4.57Z"/><path class="cls-2" d="M129.07,182.18a5.46,5.46,0,0,0,2.87,0,1.49,1.49,0,0,1,1.7.47l-.19,1.64-2.57,1.24-1.62-.52Z"/><path class="cls-4" d="M119,136.08c0,5.1,5.81,9.23,13,9.23s13-4.13,13-9.23Z"/><path class="cls-5" d="M172.35,104.29c21.72-74.65-99.47-82.77-82.78,1C93.87,44.69,169.39,43.91,172.35,104.29Z"/><ellipse class="cls-5" cx="121.34" cy="69.82" rx="32.57" ry="13.16" transform="translate(-16.31 44.3) rotate(-19.42)"/></svg>